<?xml version="1.0" encoding="iso-8859-1"?>
<!-- Generator: Adobe Illustrator 22.1.0, SVG Export Plug-In . SVG Version: 6.00 Build 0)  -->
<svg version="1.1" id="Layer_1" xmlns="http://www.w3.org/2000/svg" xmlns:xlink="http://www.w3.org/1999/xlink" x="0px" y="0px"
	 viewBox="0 0 30 30" style="enable-background:new 0 0 30 30;" xml:space="preserve">
<path style="fill:#0E153C;" d="M6.091,14.751c0.002-0.005,0.002-0.009,0.005-0.014c0.034-0.083,0.084-0.158,0.146-0.22
	c0.001-0.001,0.001-0.003,0.003-0.004l6.431-6.431c0.135-0.135,0.311-0.202,0.487-0.202c0.176,0,0.352,0.067,0.487,0.202
	c0.269,0.269,0.269,0.706,0,0.975l-5.255,5.255h14.874c0.38,0,0.689,0.308,0.689,0.689s-0.309,0.689-0.689,0.689H8.396l5.253,5.253
	c0.269,0.269,0.269,0.706,0,0.975c-0.269,0.269-0.705,0.269-0.974,0L6.25,15.493c-0.067-0.065-0.12-0.144-0.156-0.232
	c-0.001-0.002-0.001-0.005-0.002-0.007c-0.031-0.079-0.049-0.163-0.049-0.253v-0.002C6.043,14.911,6.061,14.828,6.091,14.751z"/>
</svg>
