<?xml version="1.0" encoding="iso-8859-1"?>
<!-- Generator: Adobe Illustrator 22.1.0, SVG Export Plug-In . SVG Version: 6.00 Build 0)  -->
<svg version="1.1" id="Layer_1" xmlns="http://www.w3.org/2000/svg" xmlns:xlink="http://www.w3.org/1999/xlink" x="0px" y="0px"
	 viewBox="0 0 30 30" style="enable-background:new 0 0 30 30;" xml:space="preserve">
<path style="fill:#0E153C;" d="M15.249,6.091c0.005,0.002,0.009,0.002,0.014,0.005c0.083,0.034,0.158,0.084,0.22,0.146
	c0.001,0.001,0.003,0.001,0.004,0.003l6.431,6.431c0.135,0.135,0.202,0.311,0.202,0.487c0,0.176-0.067,0.352-0.202,0.487
	c-0.269,0.269-0.706,0.269-0.975,0l-5.255-5.255v14.874c0,0.38-0.308,0.689-0.689,0.689s-0.689-0.309-0.689-0.689V8.396L9.057,13.65
	c-0.269,0.269-0.706,0.269-0.975,0c-0.269-0.269-0.269-0.705,0-0.974l6.425-6.425c0.065-0.067,0.144-0.12,0.232-0.156
	c0.002-0.001,0.005-0.001,0.007-0.002c0.079-0.031,0.163-0.049,0.253-0.049h0.002C15.089,6.043,15.172,6.061,15.249,6.091z"/>
</svg>
