<?xml version="1.0" encoding="iso-8859-1"?>
<!-- Generator: Adobe Illustrator 22.1.0, SVG Export Plug-In . SVG Version: 6.00 Build 0)  -->
<svg version="1.1" id="Layer_1" xmlns="http://www.w3.org/2000/svg" xmlns:xlink="http://www.w3.org/1999/xlink" x="0px" y="0px"
	 viewBox="0 0 30 30" style="enable-background:new 0 0 30 30;" xml:space="preserve">
<path style="fill:#0E153C;" d="M23.909,15.045c0.03-0.077,0.048-0.16,0.048-0.248v-0.001v-0.001c0-0.09-0.018-0.174-0.049-0.253
	c-0.001-0.003-0.001-0.005-0.002-0.007c-0.036-0.088-0.089-0.167-0.156-0.232l-6.425-6.425c-0.269-0.269-0.705-0.269-0.974,0
	c-0.269,0.269-0.269,0.706,0,0.975l5.253,5.253H6.732c-0.38,0-0.689,0.308-0.689,0.689s0.309,0.689,0.689,0.689h14.874L16.35,20.74
	c-0.269,0.269-0.269,0.706,0,0.975c0.135,0.135,0.311,0.202,0.487,0.202c0.176,0,0.353-0.067,0.487-0.202l6.431-6.431
	c0.001-0.001,0.002-0.003,0.003-0.004c0.062-0.063,0.112-0.138,0.146-0.22C23.907,15.055,23.907,15.05,23.909,15.045"/>
</svg>
