<?xml version="1.0" encoding="iso-8859-1"?>
<!-- Generator: Adobe Illustrator 22.1.0, SVG Export Plug-In . SVG Version: 6.00 Build 0)  -->
<svg version="1.1" id="Layer_1" xmlns="http://www.w3.org/2000/svg" xmlns:xlink="http://www.w3.org/1999/xlink" x="0px" y="0px"
	 viewBox="0 0 30 30" style="enable-background:new 0 0 30 30;" xml:space="preserve">
<path style="fill:#0E153C;" d="M6.635,8.077h17.308c0.478,0,0.865,0.387,0.865,0.865c0,0.478-0.387,0.865-0.865,0.865H6.635
	c-0.478,0-0.865-0.387-0.865-0.865C5.769,8.464,6.157,8.077,6.635,8.077z M6.635,14.135h17.308c0.478,0,0.865,0.387,0.865,0.865
	s-0.387,0.865-0.865,0.865H6.635c-0.478,0-0.865-0.387-0.865-0.865C5.769,14.522,6.157,14.135,6.635,14.135z M6.635,20.192h17.308
	c0.478,0,0.865,0.387,0.865,0.865s-0.387,0.865-0.865,0.865H6.635c-0.478,0-0.865-0.387-0.865-0.865S6.157,20.192,6.635,20.192z"/>
</svg>
