<?xml version="1.0" encoding="iso-8859-1"?>
<!-- Generator: Adobe Illustrator 22.1.0, SVG Export Plug-In . SVG Version: 6.00 Build 0)  -->
<svg version="1.1" id="Layer_1" xmlns="http://www.w3.org/2000/svg" xmlns:xlink="http://www.w3.org/1999/xlink" x="0px" y="0px"
	 viewBox="0 0 30 30" style="enable-background:new 0 0 30 30;" xml:space="preserve">
<path style="fill:#0E153C;" d="M15,23.954c-4.937,0-8.954-4.017-8.954-8.954S10.063,6.046,15,6.046s8.954,4.017,8.954,8.954
	S19.937,23.954,15,23.954 M15,4.789C9.37,4.789,4.789,9.37,4.789,15S9.37,25.211,15,25.211S25.211,20.63,25.211,15
	S20.63,4.789,15,4.789 M19.676,11.417c0.117-0.126,0.28-0.197,0.452-0.197s0.335,0.072,0.452,0.197
	c0.237,0.255,0.237,0.65-0.002,0.907l-6.832,7.199c-0.117,0.125-0.28,0.196-0.451,0.196c-0.172-0.001-0.335-0.072-0.45-0.195
	l-3.419-3.602c-0.238-0.255-0.238-0.652-0.001-0.906c0.117-0.126,0.28-0.197,0.452-0.197c0.172,0,0.335,0.072,0.45,0.195
	l2.967,3.125L19.676,11.417z"/>
</svg>
