<?xml version="1.0" encoding="iso-8859-1"?>
<!-- Generator: Adobe Illustrator 22.1.0, SVG Export Plug-In . SVG Version: 6.00 Build 0)  -->
<svg version="1.1" id="Layer_1" xmlns="http://www.w3.org/2000/svg" xmlns:xlink="http://www.w3.org/1999/xlink" x="0px" y="0px"
	 viewBox="0 0 30 30" style="enable-background:new 0 0 30 30;" xml:space="preserve">
<path style="fill:#0E153C;" d="M22.588,21.287c0.359,0.359,0.359,0.941,0,1.301c-0.359,0.359-0.942,0.359-1.301,0L15,16.301
	l-6.287,6.287c-0.359,0.359-0.941,0.359-1.301,0s-0.359-0.942,0-1.301L13.699,15L7.412,8.713c-0.359-0.359-0.359-0.941,0-1.301
	s0.941-0.359,1.301,0L15,13.699l6.287-6.287c0.359-0.359,0.941-0.359,1.301,0c0.359,0.359,0.359,0.941,0,1.301L16.301,15
	L22.588,21.287z"/>
</svg>
