<?xml version="1.0" encoding="iso-8859-1"?>
<!-- Generator: Adobe Illustrator 22.1.0, SVG Export Plug-In . SVG Version: 6.00 Build 0)  -->
<svg version="1.1" id="Layer_1" xmlns="http://www.w3.org/2000/svg" xmlns:xlink="http://www.w3.org/1999/xlink" x="0px" y="0px"
	 viewBox="0 0 30 30" style="enable-background:new 0 0 30 30;" xml:space="preserve">
<path style="fill:#0E153C;" d="M26.466,6.834c-0.012-0.034-0.03-0.063-0.049-0.093c-0.011-0.019-0.016-0.04-0.03-0.057
	c-0.005-0.006-0.013-0.009-0.019-0.015c-0.024-0.027-0.053-0.047-0.083-0.068c-0.024-0.017-0.046-0.036-0.072-0.049
	c-0.028-0.013-0.058-0.019-0.088-0.027c-0.033-0.009-0.066-0.018-0.1-0.02C26.016,6.505,26.009,6.5,26,6.5H4
	c-0.009,0-0.016,0.005-0.025,0.005c-0.034,0.002-0.067,0.011-0.1,0.02c-0.03,0.008-0.06,0.014-0.088,0.027
	C3.761,6.564,3.739,6.583,3.715,6.6c-0.03,0.021-0.059,0.041-0.083,0.068C3.626,6.674,3.618,6.677,3.613,6.684
	c-0.014,0.017-0.019,0.038-0.03,0.057C3.564,6.771,3.546,6.8,3.534,6.834C3.522,6.867,3.518,6.9,3.513,6.934
	C3.51,6.957,3.5,6.977,3.5,7v16c0,0.276,0.224,0.5,0.5,0.5h22c0.276,0,0.5-0.224,0.5-0.5V7c0-0.023-0.01-0.043-0.013-0.065
	C26.482,6.9,26.478,6.867,26.466,6.834z M24.599,7.5L15,15.354L5.401,7.5H24.599z M4.5,22.5V8.055l10.183,8.332
	C14.775,16.462,14.888,16.5,15,16.5s0.225-0.038,0.317-0.113L25.5,8.055V22.5H4.5z"/>
</svg>
