<?xml version="1.0" encoding="iso-8859-1"?>
<!-- Generator: Adobe Illustrator 22.1.0, SVG Export Plug-In . SVG Version: 6.00 Build 0)  -->
<svg version="1.1" id="Layer_1" xmlns="http://www.w3.org/2000/svg" xmlns:xlink="http://www.w3.org/1999/xlink" x="0px" y="0px"
	 viewBox="0 0 30 30" style="enable-background:new 0 0 30 30;" xml:space="preserve">
<path style="fill:#0E153C;" d="M24.75,3H5.25C4.009,3.004,3.004,4.009,3,5.25v19.5c0.004,1.241,1.009,2.246,2.25,2.25h10.5v-9.75
	h-2.625V13.5h2.625v-1.875c0.061-2.102,0.604-3.973,4.17-4.125h2.955v3.717h-2.498c-0.651-0.039-1.211,0.457-1.25,1.109
	c-0.001,0.017-0.001,0.033-0.002,0.05V13.5h3.75l-0.64,3.75h-3.11V27h5.625c1.241-0.004,2.246-1.009,2.25-2.25V5.25
	C26.996,4.009,25.991,3.004,24.75,3"/>
</svg>
