<?xml version="1.0" encoding="iso-8859-1"?>
<!-- Generator: Adobe Illustrator 22.1.0, SVG Export Plug-In . SVG Version: 6.00 Build 0)  -->
<svg version="1.1" id="Layer_1" xmlns="http://www.w3.org/2000/svg" xmlns:xlink="http://www.w3.org/1999/xlink" x="0px" y="0px"
	 viewBox="0 0 30 30" style="enable-background:new 0 0 30 30;" xml:space="preserve">
<path style="fill:#0E153C;" d="M20.996,5c3.533,0,6.398,2.864,6.398,6.398c0,5.072-4.029,10.182-11.786,15.489
	c-0.22,0.15-0.509,0.15-0.729,0C7.121,21.579,3.093,16.47,3.093,11.398C3.093,7.864,5.957,5,9.49,5c2.299,0,4.543,1.229,5.753,3.06
	C16.453,6.229,18.697,5,20.996,5z M26.103,11.398c0-2.821-2.287-5.108-5.108-5.108c-2.241,0-4.44,1.459-5.146,3.41
	c-0.205,0.567-1.008,0.567-1.213,0C13.93,7.749,11.732,6.29,9.49,6.29c-2.821,0-5.108,2.287-5.108,5.108
	c0,4.46,3.661,9.176,10.86,14.174C22.443,20.574,26.103,15.858,26.103,11.398z"/>
</svg>
