<?xml version="1.0" encoding="iso-8859-1"?>
<!-- Generator: Adobe Illustrator 22.1.0, SVG Export Plug-In . SVG Version: 6.00 Build 0)  -->
<svg version="1.1" id="Layer_1" xmlns="http://www.w3.org/2000/svg" xmlns:xlink="http://www.w3.org/1999/xlink" x="0px" y="0px"
	 viewBox="0 0 30 30" style="enable-background:new 0 0 30 30;" xml:space="preserve">
<path style="fill:#0E153C;" d="M15,13.694c-0.347,0-0.628,0.282-0.628,0.628v5.341c0,0.347,0.282,0.628,0.628,0.628
	s0.628-0.282,0.628-0.628v-5.341C15.628,13.975,15.347,13.694,15,13.694 M15,23.954c-4.937,0-8.954-4.017-8.954-8.954
	S10.063,6.046,15,6.046s8.954,4.017,8.954,8.954S19.937,23.954,15,23.954 M15,4.789C9.37,4.789,4.789,9.37,4.789,15
	S9.37,25.211,15,25.211S25.211,20.63,25.211,15S20.63,4.789,15,4.789 M15,9.878c-0.581,0-1.051,0.471-1.051,1.051
	s0.47,1.051,1.051,1.051s1.051-0.471,1.051-1.051S15.581,9.878,15,9.878"/>
</svg>
