<?xml version="1.0" encoding="iso-8859-1"?>
<!-- Generator: Adobe Illustrator 22.1.0, SVG Export Plug-In . SVG Version: 6.00 Build 0)  -->
<svg version="1.1" id="Layer_1" xmlns="http://www.w3.org/2000/svg" xmlns:xlink="http://www.w3.org/1999/xlink" x="0px" y="0px"
	 viewBox="0 0 30 30" style="enable-background:new 0 0 30 30;" xml:space="preserve">
<path style="fill:#0E153C;" d="M14.948,4.247c-2.912,0-3.276,0.012-4.42,0.064C9.387,4.364,8.608,4.545,7.926,4.81
	C7.221,5.084,6.623,5.45,6.027,6.046C5.431,6.642,5.064,7.24,4.79,7.945c-0.265,0.682-0.446,1.461-0.498,2.602
	c-0.052,1.143-0.064,1.508-0.064,4.42c0,2.911,0.012,3.276,0.064,4.42c0.052,1.141,0.233,1.92,0.498,2.602
	c0.274,0.705,0.641,1.303,1.236,1.899c0.596,0.596,1.194,0.963,1.899,1.237c0.682,0.265,1.461,0.446,2.602,0.498
	c1.144,0.052,1.508,0.065,4.42,0.065c2.911,0,3.276-0.012,4.42-0.065c1.141-0.052,1.92-0.233,2.602-0.498
	c0.705-0.274,1.303-0.641,1.899-1.237s0.962-1.194,1.236-1.899c0.265-0.682,0.446-1.461,0.498-2.602
	c0.052-1.143,0.065-1.509,0.065-4.42c0-2.912-0.013-3.277-0.065-4.42c-0.052-1.141-0.233-1.92-0.498-2.602
	c-0.274-0.705-0.64-1.303-1.236-1.899C23.273,5.45,22.675,5.084,21.97,4.81c-0.682-0.265-1.461-0.446-2.602-0.498
	C18.224,4.259,17.859,4.247,14.948,4.247 M14.948,6.179c2.862,0,3.201,0.011,4.332,0.062c1.045,0.048,1.613,0.222,1.991,0.369
	c0.5,0.195,0.858,0.427,1.233,0.802c0.375,0.375,0.607,0.732,0.802,1.233c0.147,0.378,0.322,0.946,0.369,1.991
	c0.051,1.13,0.062,1.47,0.062,4.332s-0.011,3.201-0.062,4.332c-0.048,1.045-0.223,1.613-0.369,1.99
	c-0.194,0.501-0.427,0.858-0.802,1.233c-0.375,0.375-0.732,0.607-1.233,0.802c-0.378,0.147-0.945,0.321-1.991,0.369
	c-1.13,0.052-1.469,0.063-4.332,0.063s-3.202-0.011-4.332-0.063c-1.045-0.048-1.613-0.222-1.991-0.369
	c-0.5-0.194-0.858-0.427-1.232-0.802c-0.375-0.375-0.607-0.732-0.802-1.233c-0.147-0.378-0.321-0.945-0.369-1.99
	c-0.051-1.131-0.062-1.469-0.062-4.332s0.011-3.202,0.062-4.332C6.269,9.59,6.444,9.023,6.591,8.645
	c0.195-0.5,0.427-0.858,0.802-1.233C7.768,7.037,8.125,6.805,8.625,6.61c0.378-0.147,0.945-0.321,1.991-0.369
	C11.746,6.19,12.085,6.179,14.948,6.179 M14.948,18.541c-1.974,0-3.574-1.6-3.574-3.573s1.6-3.573,3.574-3.573
	c1.973,0,3.573,1.6,3.573,3.573S16.921,18.541,14.948,18.541 M14.948,9.462c-3.04,0-5.505,2.465-5.505,5.505
	s2.465,5.505,5.505,5.505c3.04,0,5.505-2.465,5.505-5.505S17.988,9.462,14.948,9.462 M21.957,9.245c0,0.711-0.576,1.287-1.287,1.287
	s-1.286-0.576-1.286-1.287c0-0.711,0.576-1.287,1.286-1.287S21.957,8.534,21.957,9.245"/>
</svg>
