<?xml version="1.0" encoding="iso-8859-1"?>
<!-- Generator: Adobe Illustrator 22.1.0, SVG Export Plug-In . SVG Version: 6.00 Build 0)  -->
<svg version="1.1" id="Layer_1" xmlns="http://www.w3.org/2000/svg" xmlns:xlink="http://www.w3.org/1999/xlink" x="0px" y="0px"
	 viewBox="0 0 30 30" style="enable-background:new 0 0 30 30;" xml:space="preserve">
<path style="fill:#0E153C;" d="M5.887,4C4.275,4,3,5.168,3,6.599s1.275,2.599,2.888,2.599s2.887-1.168,2.887-2.599S7.5,4,5.887,4z
	 M20.888,10.705c-2.138,0-3.413,0.791-4.763,2.524v-2.034H11.25V26h4.912v-8.024c0-1.695,0.863-3.353,2.812-3.353
	c1.95,0,3.113,1.658,3.113,3.315V26H27v-8.4C27,11.76,23.062,10.705,20.888,10.705z M3.431,26h4.875V11.195H3.431V26z"/>
</svg>
