<?xml version="1.0" encoding="iso-8859-1"?>
<!-- Generator: Adobe Illustrator 22.1.0, SVG Export Plug-In . SVG Version: 6.00 Build 0)  -->
<svg version="1.1" id="Layer_1" xmlns="http://www.w3.org/2000/svg" xmlns:xlink="http://www.w3.org/1999/xlink" x="0px" y="0px"
	 viewBox="0 0 30 30" style="enable-background:new 0 0 30 30;" xml:space="preserve">
<path style="fill:#0E153C;" d="M22.354,15.646C22.26,15.553,22.133,15.5,22,15.5h-3.293L14.5,11.293V8
	c0-0.133-0.053-0.26-0.146-0.354l-4-4C10.26,3.553,10.133,3.5,10,3.5H4C3.724,3.5,3.5,3.724,3.5,4v7c0,0.133,0.053,0.26,0.146,0.354
	l15,15C18.74,26.447,18.867,26.5,19,26.5h7c0.276,0,0.5-0.224,0.5-0.5v-6c0-0.133-0.053-0.26-0.146-0.354L22.354,15.646z M25.5,25.5
	h-6.293L4.5,10.793V4.5h5.293L13.5,8.207V11.5c0,0.133,0.053,0.26,0.146,0.354l4.5,4.5C18.24,16.447,18.367,16.5,18.5,16.5h3.293
	l3.707,3.707V25.5z M17,10.5h1.793l0.707,0.707V13c0,0.276,0.224,0.5,0.5,0.5s0.5-0.224,0.5-0.5v-2c0-0.133-0.053-0.26-0.146-0.354
	l-1-1C19.26,9.553,19.133,9.5,19,9.5h-2c-0.276,0-0.5,0.224-0.5,0.5S16.724,10.5,17,10.5z M23,13.5c0.276,0,0.5-0.224,0.5-0.5V9
	c0-0.133-0.053-0.26-0.146-0.354l-2-2C21.26,6.553,21.133,6.5,21,6.5h-4c-0.276,0-0.5,0.224-0.5,0.5s0.224,0.5,0.5,0.5h3.793
	L22.5,9.207V13C22.5,13.276,22.724,13.5,23,13.5z M23.354,3.646C23.26,3.553,23.133,3.5,23,3.5h-6c-0.276,0-0.5,0.224-0.5,0.5
	s0.224,0.5,0.5,0.5h5.793L25.5,7.207V13c0,0.276,0.224,0.5,0.5,0.5s0.5-0.224,0.5-0.5V7c0-0.133-0.053-0.26-0.146-0.354
	L23.354,3.646z"/>
</svg>
