<?xml version="1.0" encoding="iso-8859-1"?>
<!-- Generator: Adobe Illustrator 22.1.0, SVG Export Plug-In . SVG Version: 6.00 Build 0)  -->
<svg version="1.1" id="Layer_1" xmlns="http://www.w3.org/2000/svg" xmlns:xlink="http://www.w3.org/1999/xlink" x="0px" y="0px"
	 viewBox="0 0 30 30" style="enable-background:new 0 0 30 30;" xml:space="preserve">
<path style="fill:#0E153C;" d="M7.089,13.072c0-3.49,2.839-6.329,6.329-6.329s6.329,2.839,6.329,6.329s-2.839,6.329-6.329,6.329
	S7.089,16.562,7.089,13.072 M24.122,23.473l-4.992-5.191c1.307-1.43,2.023-3.266,2.023-5.21c0-4.266-3.47-7.736-7.736-7.736
	s-7.736,3.47-7.736,7.736s3.47,7.736,7.736,7.736c1.686,0,3.333-0.558,4.674-1.576l5.016,5.217c0.134,0.139,0.314,0.216,0.507,0.216
	c0.183,0,0.356-0.07,0.487-0.197C24.382,24.199,24.391,23.753,24.122,23.473"/>
</svg>
