<?xml version="1.0" encoding="iso-8859-1"?>
<!-- Generator: Adobe Illustrator 22.1.0, SVG Export Plug-In . SVG Version: 6.00 Build 0)  -->
<svg version="1.1" id="Layer_1" xmlns="http://www.w3.org/2000/svg" xmlns:xlink="http://www.w3.org/1999/xlink" x="0px" y="0px"
	 viewBox="0 0 30 30" style="enable-background:new 0 0 30 30;" xml:space="preserve">
<path style="fill:#000;" d="M13.294,19.469c-0.102,0-0.199-0.043-0.268-0.117l-3.417-3.6c-0.149-0.159-0.149-0.407,0-0.566
	c0.069-0.075,0.167-0.117,0.268-0.117c0.102,0,0.199,0.043,0.269,0.117l3.148,3.316l6.565-6.915
	c0.069-0.075,0.167-0.117,0.268-0.117c0.102,0,0.199,0.043,0.269,0.117c0.148,0.159,0.148,0.406,0,0.565l-6.833,7.2
	C13.493,19.426,13.396,19.469,13.294,19.469z"/>
</svg>
