<?xml version="1.0" encoding="iso-8859-1"?>
<!-- Generator: Adobe Illustrator 22.1.0, SVG Export Plug-In . SVG Version: 6.00 Build 0)  -->
<svg version="1.1" id="Layer_1" xmlns="http://www.w3.org/2000/svg" xmlns:xlink="http://www.w3.org/1999/xlink" x="0px" y="0px"
	 viewBox="0 0 30 30" style="enable-background:new 0 0 30 30;" xml:space="preserve">
<path style="fill:#0E153C;" d="M25.279,8.237c0-0.189-0.156-0.357-0.356-0.357c-0.111,0-0.879,0.323-1.08,0.379
	C24.11,7.947,24.722,7,24.722,6.599c0-0.189-0.156-0.357-0.356-0.357c-0.056,0-0.122,0.022-0.178,0.056
	c-0.757,0.412-1.481,0.735-2.327,0.914c-0.835-0.802-1.971-1.27-3.139-1.27c-2.471,0-4.498,2.017-4.498,4.502
	c0,0.178,0.011,0.368,0.045,0.546c-2.449-0.212-4.776-1.237-6.602-2.875C7.221,7.713,6.843,7.279,6.442,6.833
	c-0.089-0.1-0.167-0.134-0.301-0.134c-0.122,0-0.223,0.089-0.278,0.178C5.462,7.468,5.251,8.427,5.251,9.14
	c0,1.036,0.356,2.05,1.024,2.853c-0.212-0.067-0.534-0.279-0.724-0.279c-0.234,0-0.434,0.167-0.434,0.401
	c0,1.56,0.857,3.009,2.171,3.822c-0.1-0.011-0.189-0.045-0.289-0.045c-0.189,0-0.345,0.167-0.345,0.345
	c0,0.045,0.011,0.078,0.022,0.123c0.49,1.504,1.714,2.641,3.251,2.998c-1.258,0.78-2.705,1.181-4.175,1.181
	c-0.334,0-0.668-0.056-0.991-0.056c-0.2,0-0.356,0.167-0.356,0.357c0,0.123,0.067,0.223,0.167,0.301
	c0.289,0.212,0.646,0.39,0.969,0.557c1.714,0.892,3.629,1.36,5.566,1.36c4.854,0,9.006-2.608,11.01-7.043
	c0.724-1.594,1.147-3.343,1.113-5.093v-0.368c0.757-0.568,1.492-1.304,1.993-2.117C25.256,8.382,25.279,8.315,25.279,8.237z"/>
</svg>
