<?xml version="1.0" encoding="iso-8859-1"?>
<!-- Generator: Adobe Illustrator 22.1.0, SVG Export Plug-In . SVG Version: 6.00 Build 0)  -->
<svg version="1.1" id="Layer_1" xmlns="http://www.w3.org/2000/svg" xmlns:xlink="http://www.w3.org/1999/xlink" x="0px" y="0px"
	 viewBox="0 0 30 30" style="enable-background:new 0 0 30 30;" xml:space="preserve">
<path style="fill:#0E153C;" d="M15,20.71c-3.275,0-5.929-2.655-5.929-5.929S11.725,8.851,15,8.851s5.929,2.655,5.929,5.929
	S18.275,20.71,15,20.71z M15,19.392c2.547,0,4.612-2.065,4.612-4.612S17.547,10.169,15,10.169s-4.612,2.065-4.612,4.612
	S12.453,19.392,15,19.392z M15,6.655c3.482,0,6.758,1.504,9.734,3.997c1.033,0.865,1.956,1.79,2.758,2.716
	c0.282,0.325,0.528,0.627,0.739,0.899c0.128,0.166,0.217,0.286,0.265,0.354c0.16,0.227,0.16,0.53,0,0.758
	c-0.048,0.068-0.137,0.189-0.265,0.354c-0.21,0.272-0.457,0.574-0.739,0.899c-0.802,0.926-1.726,1.851-2.758,2.716
	c-2.977,2.493-6.252,3.997-9.734,3.997s-6.758-1.504-9.734-3.997c-1.033-0.865-1.956-1.79-2.758-2.716
	c-0.282-0.325-0.528-0.627-0.739-0.899c-0.128-0.166-0.217-0.286-0.265-0.354c-0.16-0.227-0.16-0.53,0-0.758
	c0.048-0.068,0.137-0.189,0.265-0.354c0.21-0.272,0.457-0.574,0.739-0.899c0.802-0.926,1.726-1.851,2.758-2.716
	C8.242,8.159,11.518,6.655,15,6.655z M26.497,14.23c-0.759-0.876-1.633-1.752-2.608-2.569C21.128,9.351,18.128,7.972,15,7.972
	s-6.128,1.378-8.888,3.689c-0.975,0.817-1.85,1.693-2.608,2.569c-0.24,0.277-0.452,0.535-0.635,0.77
	c0.183,0.234,0.396,0.493,0.635,0.77c0.759,0.876,1.633,1.752,2.608,2.569c2.76,2.311,5.761,3.689,8.888,3.689
	s6.128-1.378,8.888-3.689c0.975-0.817,1.85-1.693,2.608-2.569c0.24-0.277,0.452-0.535,0.635-0.77
	C26.949,14.766,26.737,14.507,26.497,14.23z"/>
</svg>
