<?xml version="1.0" encoding="iso-8859-1"?>
<!-- Generator: Adobe Illustrator 22.1.0, SVG Export Plug-In . SVG Version: 6.00 Build 0)  -->
<svg version="1.1" id="Layer_1" xmlns="http://www.w3.org/2000/svg" xmlns:xlink="http://www.w3.org/1999/xlink" x="0px" y="0px"
	 viewBox="0 0 30 30" style="enable-background:new 0 0 30 30;" xml:space="preserve">
<path style="fill:#0E153C;" d="M12.808,4.828c0.96-1.713,3.425-1.713,4.384,0l9.978,17.817c0.937,1.675-0.273,3.74-2.192,3.74H5.023
	c-1.92,0-3.13-2.066-2.192-3.74L12.808,4.828z M3.964,23.28c-0.453,0.808,0.132,1.805,1.058,1.805h19.956
	c0.926,0,1.51-0.997,1.058-1.805L16.058,5.463c-0.463-0.827-1.652-0.827-2.116,0L3.964,23.28z M15.65,18.239
	c0,0.359-0.291,0.65-0.65,0.65s-0.65-0.291-0.65-0.65v-7.517c0-0.359,0.291-0.65,0.65-0.65s0.65,0.291,0.65,0.65V18.239z M15,20.093
	c0.521,0,0.944,0.422,0.944,0.944c0,0.521-0.423,0.943-0.944,0.943s-0.944-0.423-0.944-0.943C14.056,20.515,14.479,20.093,15,20.093
	"/>
</svg>
