<?xml version="1.0" encoding="iso-8859-1"?>
<!-- Generator: Adobe Illustrator 22.1.0, SVG Export Plug-In . SVG Version: 6.00 Build 0)  -->
<svg version="1.1" id="Layer_1" xmlns="http://www.w3.org/2000/svg" xmlns:xlink="http://www.w3.org/1999/xlink" x="0px" y="0px"
	 viewBox="0 0 30 30" style="enable-background:new 0 0 30 30;" xml:space="preserve">
<path style="fill:#0E153C;" d="M18.645,15.84l-6.563,3.136c-0.13,0.063-0.288,0.009-0.351-0.123
	c-0.017-0.036-0.026-0.075-0.026-0.116v-6.463c0-0.146,0.117-0.264,0.262-0.265c0.042,0,0.083,0.01,0.12,0.029l6.563,3.329
	c0.129,0.066,0.18,0.226,0.113,0.356c-0.026,0.051-0.067,0.093-0.119,0.117L18.645,15.84z M22.015,7H7.984
	C5.241,6.991,3.009,9.225,3,11.989v7.021C3.009,21.775,5.241,24.009,7.984,24h14.031c2.744,0.009,4.976-2.225,4.985-4.989v-7.021
	C26.991,9.225,24.76,6.991,22.015,7z"/>
</svg>
