
<svg width="158px" height="36px" viewBox="0 0 158 36" version="1.1" xmlns="http://www.w3.org/2000/svg" xmlns:xlink="http://www.w3.org/1999/xlink">
    <!-- Generator: Sketch 51.1 (57501) - http://www.bohemiancoding.com/sketch -->
    <desc>Created with Sketch.</desc>
    <defs></defs>
    <g id="Symbols" stroke="none" stroke-width="1" fill="none" fill-rule="evenodd">
        <g id="Footer" transform="translate(-247.000000, -255.000000)" fill="#0E163C">
            <g id="Group-5">
                <g id="Branding/paynters-landscape-logo" transform="translate(248.000000, 255.000000)">
                    <g id="Group" stroke-width="1" fill-rule="evenodd" transform="translate(39.069124, 0.000000)">
                        <path d="M8.64440553,0.101164384 C9.83094931,0.101164384 10.8969094,0.267054795 11.8456621,0.606267123 C12.7907972,0.945239726 13.5972611,1.4184589 14.2652949,2.03311644 C14.9297112,2.65113014 15.4448449,3.37869863 15.8106959,4.22277397 C16.1731705,5.06684932 16.3542873,5.99554795 16.3542873,7.00575342 C16.3542873,8.01931507 16.1731705,8.95520548 15.8106959,9.80982877 C15.4448449,10.6644521 14.92947,11.4025685 14.2652949,12.017226 C13.5972611,12.6316438 12.7907972,13.1120548 11.8456621,13.4615753 C10.8971505,13.8110959 9.83119048,13.987774 8.64440553,13.987774 L3.04160369,13.987774 L3.04160369,23.9682877 L0.202821813,23.9682877 L0.202821813,0.101164384 L8.64440553,0.101164384 Z M3.04160369,2.62979452 L3.04160369,11.4553082 L8.56988479,11.4553082 C10.1722012,11.4553082 11.3765914,11.0456164 12.1902903,10.2262329 C13.0039892,9.40684932 13.4089094,8.34390411 13.4089094,7.04410959 C13.4089094,5.76565068 13.0039892,4.70965753 12.1902903,3.87972603 C11.3765914,3.04619863 10.1722012,2.62955479 8.56988479,2.62955479 L3.04160369,2.62955479 L3.04160369,2.62979452 Z" id="Shape" fill-rule="nonzero"></path>
                        <path d="M24.1741413,5.95671233 C25.1937972,5.95671233 26.128321,6.1084589 26.9774716,6.40883562 C27.8266221,6.71256849 28.5585653,7.16469178 29.1766774,7.76496575 C29.7947896,8.36883562 30.2744716,9.1175 30.6154823,10.0076027 C30.9531167,10.9010616 31.1236221,11.9393151 31.1236221,13.1190068 L31.1236221,23.9682877 L28.465957,23.9682877 L28.465957,21.7256507 C27.8369923,22.569726 27.0162995,23.2196233 26.0108725,23.6786986 C25.0054455,24.137774 23.8471183,24.3674315 22.5361321,24.3674315 C21.6409186,24.3674315 20.8093733,24.2509247 20.045596,24.0212671 C19.2818187,23.7952055 18.6280138,23.4667808 18.0808049,23.0465411 C17.533596,22.6263014 17.1108295,22.1070548 16.8088879,21.492637 C16.5033287,20.8746233 16.3540461,20.1822945 16.3540461,19.4125342 C16.3540461,17.9185616 16.9297127,16.7249658 18.0808049,15.8315068 C19.2318971,14.9416438 20.7775392,14.4931164 22.7208664,14.4931164 L28.3236682,14.4931164 L28.3236682,12.9739726 C28.3236682,11.48 27.9327358,10.3640753 27.1583472,9.62955479 C26.380341,8.89503425 25.3249923,8.52777397 23.9927834,8.52777397 C22.9019831,8.52777397 21.9498541,8.77493151 21.1361551,9.26589041 C20.3224562,9.76020548 19.5656728,10.4561301 18.8624286,11.3459932 L16.9723994,9.82732877 C17.8215499,8.47815068 18.8732811,7.4964726 20.1379631,6.88181507 C21.3958925,6.26739726 22.7423303,5.95671233 24.1741413,5.95671233 Z M22.8667727,22.0504795 C23.5914808,22.0504795 24.2879724,21.9303767 24.955765,21.6901712 C25.6235576,21.4499658 26.2064593,21.1109932 26.7037465,20.6766096 C27.2010338,20.242226 27.5955837,19.7301712 27.886914,19.1404452 C28.1782442,18.5507192 28.3239094,17.9044178 28.3239094,17.205137 L28.3239094,16.7707534 L23.0088203,16.7707534 C20.4862089,16.7707534 19.2285207,17.6042808 19.2285207,19.2677397 C19.2285207,20.207226 19.5909954,20.9065068 20.319321,21.3655822 C21.0476467,21.8208219 21.8931797,22.0504795 22.8667727,22.0504795 Z" id="Shape" fill-rule="nonzero"></path>
                        <path d="M39.8044439,26.4261986 C39.1009585,28.0189384 38.2696544,29.1561986 37.3139078,29.8449315 C36.3545438,30.5336644 35.1858464,30.8762329 33.8037158,30.8762329 C33.3667204,30.8762329 32.9118786,30.8443493 32.4394316,30.7844178 C31.9669846,30.7244863 31.5227542,30.6360274 31.1105991,30.5125685 L31.1105991,28.1639726 C31.5227542,28.21 31.9028341,28.2521918 32.2546974,28.2910274 C32.6063195,28.3262671 32.9403364,28.3440068 33.2565069,28.3440068 C34.1056575,28.3440068 34.8624409,28.1567808 35.5302335,27.7825685 C36.1982673,27.4081164 36.7736928,26.6558562 37.2569923,25.5224315 L38.2055038,23.3893493 L30.8544793,6.35609589 L33.8743779,6.35609589 L39.6976068,20.3872603 L45.5526697,6.35609589 L48.5371167,6.35609589 L39.8044439,26.4261986 Z" id="Shape" fill-rule="nonzero"></path>
                        <path d="M57.7786528,5.95671233 C58.8195315,5.95671233 59.7470614,6.12619863 60.5605192,6.46517123 C61.3742181,6.80414384 62.0634747,7.27736301 62.6352826,7.89202055 C63.2037143,8.50643836 63.6337158,9.24455479 63.9250461,10.0994178 C64.2163763,10.9540411 64.3620415,11.8899315 64.3620415,12.9034932 L64.3620415,23.9680479 L61.5623287,23.9680479 L61.5623287,13.2283219 C61.5623287,11.8297603 61.1713963,10.6960959 60.3970077,9.82732877 C59.6190015,8.95856164 58.5424301,8.52777397 57.1602995,8.52777397 C56.4780369,8.52777397 55.8563072,8.64068493 55.2842581,8.87034247 C54.7158264,9.1 54.225533,9.42482877 53.8133779,9.84506849 C53.3976052,10.2689041 53.0778172,10.7668151 52.84702,11.3459932 C52.6162227,11.9251712 52.5023917,12.5537329 52.5023917,13.2283219 L52.5023917,23.9680479 L49.6990614,23.9680479 L49.6990614,6.35561644 L52.3210338,6.35561644 L52.3210338,8.30866438 C52.9499985,7.58469178 53.7280046,7.01246575 54.6480584,6.59222603 C55.5685945,6.16863014 56.6133318,5.95671233 57.7786528,5.95671233 Z" id="Shape" fill-rule="nonzero"></path>
                        <path d="M75.1335438,8.85260274 L69.6052627,8.85260274 L69.6052627,18.4728082 C69.6052627,19.1227055 69.6976298,19.6630479 69.8787465,20.0974315 C70.0598633,20.5318151 70.3157419,20.8743836 70.6425238,21.1287329 C70.9693057,21.3830822 71.3566206,21.5631164 71.8042273,21.6726712 C72.2554516,21.7786301 72.7563564,21.8352055 73.3141767,21.8352055 C73.6800276,21.8352055 74.0497373,21.8174658 74.4261997,21.7786301 C74.7992857,21.7433904 75.2184347,21.690411 75.6802704,21.6160959 L75.6802704,23.9682877 C75.2184347,24.0883904 74.7565991,24.1838014 74.2981398,24.2578767 C73.8363041,24.3285959 73.3281644,24.3674315 72.7703441,24.3674315 C71.0223625,24.3674315 69.5905515,23.9153082 68.4749109,23.0113014 C67.3592704,22.1072945 66.8014501,20.6521575 66.8014501,18.6533219 L66.8014501,8.85260274 L66.8014501,6.35561644 L66.8014501,1.5455137 L69.6047803,1.5455137 L69.6047803,6.35561644 L75.1330614,6.35561644 L75.1330614,8.85260274 L75.1335438,8.85260274 Z" id="Shape" fill-rule="nonzero"></path>
                        <path d="M85.1419923,5.95671233 C86.2576329,5.95671233 87.3057465,6.15089041 88.2899508,6.53589041 C89.2705376,6.9244863 90.126682,7.46482877 90.8516313,8.16386986 C91.579957,8.86315068 92.1520061,9.70003425 92.5641613,10.6783562 C92.9763164,11.6530822 93.1822734,12.7337671 93.1822734,13.9134589 C93.1822734,14.397226 93.1574332,14.8246575 93.1077527,15.1988699 C93.0614485,15.5733219 93.011768,15.8451712 92.9620876,16.0110616 L78.9919816,16.0110616 C79.0879662,16.9045205 79.3153871,17.7061644 79.6670092,18.4162329 C80.0186313,19.1296575 80.4770906,19.7371233 81.0491398,20.2419863 C81.6175714,20.7504452 82.2783702,21.1354452 83.0315361,21.4003425 C83.7810845,21.6652397 84.5947834,21.7994863 85.4687742,21.7994863 C86.609255,21.7994863 87.614682,21.5806164 88.4886728,21.1462329 C89.3626636,20.7118493 90.1621336,20.1362671 90.8904593,19.4122945 L92.524851,21.2910274 C91.6544777,22.2305137 90.6169754,22.9791781 89.4159616,23.5336644 C88.2149478,24.0881507 86.8863564,24.3671918 85.4330814,24.3671918 C84.097255,24.3671918 82.8607896,24.1305822 81.7203088,23.6609589 C80.579828,23.1913356 79.5922473,22.5414384 78.7573257,21.707911 C77.9187865,20.8743836 77.2652227,19.9068493 76.7925346,18.7978767 C76.3200876,17.6889041 76.0820553,16.4811644 76.0820553,15.1813699 C76.0820553,13.902911 76.3130937,12.7021233 76.7749293,11.5826027 C77.2331475,10.4594863 77.876341,9.48476027 78.7006513,8.65123288 C79.5249616,7.82130137 80.4840845,7.16445205 81.5748848,6.68068493 C82.6654439,6.20027397 83.8558464,5.95671233 85.1419923,5.95671233 Z M85.0672304,8.48893836 C84.317682,8.48893836 83.6069616,8.61263699 82.939169,8.85260274 C82.2711352,9.09280822 81.6778633,9.43537671 81.1557358,9.88390411 C80.6369846,10.3288356 80.1999892,10.8658219 79.8483671,11.4907877 C79.496745,12.1193493 79.2478602,12.8044863 79.1021951,13.5533904 L90.3080399,13.5533904 C90.3080399,12.7340068 90.1623748,12.0100342 89.8710445,11.3814726 C89.5797143,10.7562671 89.1996344,10.2267123 88.7235699,9.79232877 C88.2511229,9.35794521 87.7002965,9.03311644 87.0679555,8.81400685 C86.4387496,8.59825342 85.7707158,8.48893836 85.0672304,8.48893836 Z" id="Shape" fill-rule="nonzero"></path>
                        <path d="M103.538968,6.21082192 C103.830298,6.21082192 104.071948,6.22496575 104.267293,6.24606164 C104.462639,6.27075342 104.643997,6.30958904 104.814502,6.35561644 L104.814502,8.8135274 L103.794846,8.8135274 C103.066521,8.8135274 102.370029,8.93003425 101.702237,9.15969178 C101.034203,9.38934932 100.440931,9.71777397 99.9188034,10.1521575 C99.3966759,10.5865411 98.9809032,11.1232877 98.6647327,11.762637 C98.3485622,12.4017466 98.1922857,13.1434589 98.1922857,13.9875342 L98.1922857,23.9680479 L95.3889555,23.9680479 L95.3889555,6.35561644 L98.0109278,6.35561644 L98.0109278,8.88784247 C98.6647327,8.01907534 99.4781905,7.35503425 100.448166,6.89955479 C101.4179,6.44047945 102.448167,6.21082192 103.538968,6.21082192 Z" id="Shape" fill-rule="nonzero"></path>
                    </g>
                    <path d="M10.0606655,1.31701884 L0.842602842,1.31701884 L0.842602842,10.4799871 L10.0606655,1.31701884 Z M-0.482298694,12.069726 L-0.482298694,0.658527397 C-0.482298694,0.294852618 -0.185709383,3.59589041e-05 0.180152074,3.59589041e-05 L11.6599631,3.59589041e-05 C12.2501437,3.59589041e-05 12.5457073,0.709324691 12.1283866,1.12415116 L0.648575504,12.5353498 C0.231254798,12.9501763 -0.482298694,12.6563792 -0.482298694,12.069726 Z" id="Shape" fill-rule="nonzero"></path>
                    <path d="M1.7794497,11.4112346 L10.9975124,11.4112346 L10.9975124,2.24826636 L1.7794497,11.4112346 Z M12.3224139,0.658527397 L12.3224139,12.069726 C12.3224139,12.4334008 12.0258246,12.7282175 11.6599631,12.7282175 L0.180152074,12.7282175 C-0.410028529,12.7282175 -0.705592063,12.0189287 -0.288271357,11.6041023 L11.1915397,0.192903636 C11.6088604,-0.221922832 12.3224139,0.0718741808 12.3224139,0.658527397 Z" id="Shape" fill-rule="nonzero"></path>
                    <path d="M21.540694,1.31701884 L12.3224139,1.31701884 L12.3224139,10.4800107 L21.540694,1.31701884 Z M10.9975124,12.069726 L10.9975124,0.658527397 C10.9975124,0.294852618 11.2941017,3.59589041e-05 11.6599631,3.59589041e-05 L23.1400154,3.59589041e-05 C23.7301993,3.59589041e-05 24.0257613,0.709331581 23.6084339,1.12415605 L12.1283816,12.5353547 C11.7110589,12.9501744 10.9975124,12.6563759 10.9975124,12.069726 Z" id="Shape" fill-rule="nonzero"></path>
                    <path d="M13.2592845,11.4112346 L22.4775646,11.4112346 L22.4775646,2.24824274 L13.2592845,11.4112346 Z M23.8024661,0.658527397 L23.8024661,12.069726 C23.8024661,12.4334008 23.5058768,12.7282175 23.1400154,12.7282175 L11.6599631,12.7282175 C11.0697792,12.7282175 10.7742172,12.0189218 11.1915446,11.6040974 L22.6715969,0.192898745 C23.0889196,-0.221921007 23.8024661,0.0718775157 23.8024661,0.658527397 Z" id="Shape" fill-rule="nonzero"></path>
                    <path d="M0.842602842,21.8914018 L10.0606893,12.7282175 L0.842602842,12.7282175 L0.842602842,21.8914018 Z M-0.482298694,23.4811644 L-0.482298694,12.069726 C-0.482298694,11.7060512 -0.185709383,11.4112346 0.180152074,11.4112346 L11.6599631,11.4112346 C12.2501404,11.4112346 12.5457054,12.1205164 12.1283915,12.5353449 L0.648580424,23.9467833 C0.231261729,24.3616164 -0.482298694,24.0678209 -0.482298694,23.4811644 Z" id="Shape" fill-rule="nonzero"></path>
                    <path d="M1.77942595,22.8226729 L10.9975124,22.8226729 L10.9975124,13.6594886 L1.77942595,22.8226729 Z M12.3224139,12.069726 L12.3224139,23.4811644 C12.3224139,23.8448392 12.0258246,24.1396558 11.6599631,24.1396558 L0.180152074,24.1396558 C-0.410025174,24.1396558 -0.705590227,23.430374 -0.288276277,23.0155455 L11.1915348,11.6041072 C11.6088535,11.189274 12.3224139,11.4830695 12.3224139,12.069726 Z" id="Shape" fill-rule="nonzero"></path>
                    <path d="M12.3224139,21.8914254 L21.5407177,12.7282175 L12.3224139,12.7282175 L12.3224139,21.8914254 Z M10.9975124,23.4811644 L10.9975124,12.069726 C10.9975124,11.7060512 11.2941017,11.4112346 11.6599631,11.4112346 L23.1400154,11.4112346 C23.730196,11.4112346 24.0257595,12.1205233 23.6084388,12.5353498 L12.1283866,23.9467881 C11.7110659,24.3616146 10.9975124,24.0678176 10.9975124,23.4811644 Z" id="Shape" fill-rule="nonzero"></path>
                    <path d="M10.0606655,24.1396558 L0.842602842,24.1396558 L0.842602842,33.3026241 L10.0606655,24.1396558 Z M-0.482298694,34.892363 L-0.482298694,23.4811644 C-0.482298694,23.1174896 -0.185709383,22.8226729 0.180152074,22.8226729 L11.6599631,22.8226729 C12.2501437,22.8226729 12.5457073,23.5319617 12.1283866,23.9467881 L0.648575504,35.3579868 C0.231254798,35.7728132 -0.482298694,35.4790162 -0.482298694,34.892363 Z" id="Shape" fill-rule="nonzero"></path>
                    <path d="M150.765339,5.9859589 C152.074637,5.9859589 153.213912,6.23910959 154.184129,6.74517123 C155.153622,7.25123288 155.989991,7.92630137 156.693476,8.76965753 L154.984081,10.5047945 C154.426261,9.90260274 153.771492,9.42650685 153.020014,9.07674658 C152.268295,8.72770548 151.48016,8.55246575 150.656091,8.55246575 C149.80694,8.55246575 149.097908,8.73945205 148.528512,9.11270548 C147.958633,9.48667808 147.674055,10.0344521 147.674055,10.7574658 C147.674055,11.360137 147.904129,11.8362329 148.365,12.1855137 C148.825147,12.5350342 149.552508,12.9147603 150.547083,13.3242123 L152.183645,14.0110274 C153.783791,14.6858562 154.971541,15.4091096 155.747618,16.1800685 C156.523212,16.9517466 156.91125,17.9638699 156.91125,19.2166781 C156.91125,20.0842466 156.741469,20.8379452 156.402146,21.4763356 C156.062341,22.1149658 155.602194,22.6509932 155.020257,23.0848973 C154.438561,23.5188014 153.77125,23.8441096 153.020014,24.0610616 C152.268295,24.277774 151.4927,24.3861301 150.692507,24.3861301 C149.116237,24.3861301 147.746647,24.0485959 146.583014,23.3740068 C145.419381,22.6994178 144.473763,21.8915411 143.746161,20.9518151 L145.564564,19.1080822 C146.267567,19.8797603 147.019286,20.5241438 147.819479,21.0421918 C148.619673,21.5607192 149.565049,21.8193836 150.656332,21.8193836 C151.57735,21.8193836 152.371273,21.6024315 153.038343,21.1685274 C153.705171,20.7346233 154.038464,20.1202055 154.038464,19.3250342 C154.038464,18.5782877 153.741346,18.0115753 153.147591,17.6258562 C152.553114,17.2406164 151.819965,16.8666438 150.94718,16.505137 L149.20161,15.7821233 C148.547081,15.492774 147.947057,15.197911 147.401295,14.8963356 C146.855774,14.5952397 146.388874,14.2519521 146.001077,13.8659932 C145.613038,13.4807534 145.31592,13.0468493 145.110204,12.5645205 C144.904006,12.0826712 144.801269,11.5286644 144.801269,10.9015411 C144.801269,10.1063699 144.95851,9.40133562 145.273957,8.78667808 C145.588922,8.17226027 146.019647,7.66044521 146.565167,7.25027397 C147.110688,6.84082192 147.746888,6.52726027 148.47449,6.31030822 C149.20161,6.09455479 149.965387,5.9859589 150.765339,5.9859589 Z" id="Shape" fill-rule="nonzero"></path>
                </g>
            </g>
        </g>
    </g>
</svg>