<?xml version="1.0" encoding="UTF-8"?>
<svg width="151px" height="34px" viewBox="0 0 151 34" version="1.1" xmlns="http://www.w3.org/2000/svg" xmlns:xlink="http://www.w3.org/1999/xlink">
    <!-- Generator: Sketch 50.2 (55047) - http://www.bohemiancoding.com/sketch -->
    <title>Branding/paynters-stacked-logo Copy 3</title>
    <desc>Created with Sketch.</desc>
    <defs></defs>
    <g id="Designs" stroke="none" stroke-width="1" fill="none" fill-rule="evenodd">
        <g id="Mobile---Menu" transform="translate(-23.000000, -69.000000)" fill="#FFFFFF">
            <g id="Branding/paynters-landscape-reversed-logo" transform="translate(24.000000, 69.000000)">
                <g id="Group" stroke-width="1" fill-rule="evenodd" transform="translate(37.327189, 0.000000)">
                    <path d="M8.25898618,0.0953835616 C9.39262673,0.0953835616 10.4110599,0.251794521 11.3175115,0.571623288 C12.2205069,0.891226027 12.9910138,1.33740411 13.6292627,1.91693836 C14.2640553,2.49963699 14.7562212,3.18563014 15.1057604,3.9814726 C15.4520737,4.77731507 15.6251152,5.65294521 15.6251152,6.60542466 C15.6251152,7.56106849 15.4520737,8.44347945 15.1057604,9.24926712 C14.7562212,10.0550548 14.2638249,10.7509932 13.6292627,11.3305274 C12.9910138,11.9098356 12.2205069,12.3627945 11.3175115,12.6923425 C10.4112903,13.0218904 9.39285714,13.1884726 8.25898618,13.1884726 L2.90599078,13.1884726 L2.90599078,22.5986712 L0.193778802,22.5986712 L0.193778802,0.0953835616 L8.25898618,0.0953835616 Z M2.90599078,2.47952055 L2.90599078,10.8007192 L8.18778802,10.8007192 C9.71866359,10.8007192 10.8693548,10.4144384 11.6467742,9.64187671 C12.4241935,8.86931507 12.8110599,7.86710959 12.8110599,6.64158904 C12.8110599,5.43618493 12.4241935,4.44053425 11.6467742,3.6580274 C10.8693548,2.87213014 9.71866359,2.47929452 8.18778802,2.47929452 L2.90599078,2.47929452 L2.90599078,2.47952055 Z" id="Shape" fill-rule="nonzero"></path>
                    <path d="M23.0963134,5.61632877 C24.0705069,5.61632877 24.9633641,5.75940411 25.7746544,6.04261644 C26.5859447,6.32899315 27.2852535,6.75528082 27.8758065,7.32125342 C28.4663594,7.89061644 28.9246544,8.5965 29.2504608,9.43573973 C29.5730415,10.2781438 29.7359447,11.2570685 29.7359447,12.3693493 L29.7359447,22.5986712 L27.1967742,22.5986712 L27.1967742,20.4841849 C26.5958525,21.2800274 25.8117512,21.8927877 24.8511521,22.3256301 C23.890553,22.7584726 22.783871,22.9750068 21.5313364,22.9750068 C20.6760369,22.9750068 19.8815668,22.8651575 19.1518433,22.6486233 C18.4221198,22.4354795 17.7974654,22.1258219 17.2746544,21.7295959 C16.7518433,21.3333699 16.3479263,20.8437945 16.059447,20.2644863 C15.7675115,19.6817877 15.6248848,19.0290205 15.6248848,18.3032466 C15.6248848,16.8946438 16.1748848,15.7692534 17.2746544,14.9268493 C18.374424,14.0878356 19.8511521,13.6649384 21.7078341,13.6649384 L27.0608295,13.6649384 L27.0608295,12.2326027 C27.0608295,10.824 26.6873272,9.77184247 25.9474654,9.07929452 C25.2041475,8.38674658 24.1958525,8.0404726 22.9230415,8.0404726 C21.8808756,8.0404726 20.9711982,8.27350685 20.1937788,8.73641096 C19.4163594,9.20247945 18.693318,9.85863699 18.0214286,10.6976507 L16.2156682,9.26576712 C17.0269585,7.99368493 18.0317972,7.06810274 19.2400922,6.48856849 C20.4419355,5.90926027 21.728341,5.61632877 23.0963134,5.61632877 Z M21.847235,20.7904521 C22.5396313,20.7904521 23.2050691,20.6772123 23.8430876,20.4507329 C24.481106,20.2242534 25.0380184,19.9046507 25.5131336,19.495089 C25.9882488,19.0855274 26.3652074,18.6027329 26.6435484,18.0467055 C26.9218894,17.4906781 27.0610599,16.8813082 27.0610599,16.2219863 L27.0610599,15.8124247 L21.9829493,15.8124247 C19.5728111,15.8124247 18.3711982,16.5983219 18.3711982,18.166726 C18.3711982,19.0525274 18.7175115,19.7118493 19.4133641,20.1446918 C20.1092166,20.5739178 20.9170507,20.7904521 21.847235,20.7904521 Z" id="Shape" fill-rule="nonzero"></path>
                    <path d="M38.0297235,24.9161301 C37.3576037,26.4178562 36.5633641,27.4901301 35.6502304,28.1395068 C34.7336406,28.7888836 33.6170507,29.1118767 32.2965438,29.1118767 C31.8790323,29.1118767 31.44447,29.0818151 30.9930876,29.0253082 C30.5417051,28.9688014 30.1172811,28.8853973 29.7235023,28.7689932 L29.7235023,26.5546027 C30.1172811,26.598 30.4804147,26.6377808 30.8165899,26.6743973 C31.1525346,26.7076233 31.471659,26.7243493 31.7737327,26.7243493 C32.585023,26.7243493 33.3080645,26.5478219 33.9460829,26.1949932 C34.5843318,25.8419384 35.1341014,25.1326644 35.5958525,24.0640068 L36.5020737,22.0528151 L29.4788018,5.99289041 L32.3640553,5.99289041 L37.9276498,19.222274 L43.521659,5.99289041 L46.3730415,5.99289041 L38.0297235,24.9161301 Z" id="Shape" fill-rule="nonzero"></path>
                    <path d="M55.2025346,5.61632877 C56.1970046,5.61632877 57.0831797,5.77613014 57.8603687,6.09573288 C58.637788,6.41533562 59.2963134,6.8615137 59.8426267,7.44104795 C60.3857143,8.02035616 60.7965438,8.71629452 61.0748848,9.52230822 C61.3532258,10.3280959 61.4923963,11.2105068 61.4923963,12.1661507 L61.4923963,22.5984452 L58.8175115,22.5984452 L58.8175115,12.4724178 C58.8175115,11.153774 58.4440092,10.0848904 57.7041475,9.26576712 C56.9608295,8.44664384 55.9322581,8.0404726 54.6117512,8.0404726 C53.9599078,8.0404726 53.3658986,8.14693151 52.8193548,8.36346575 C52.2762673,8.58 51.8078341,8.88626712 51.4140553,9.28249315 C51.0168203,9.68210959 50.7112903,10.1515685 50.4907834,10.6976507 C50.2702765,11.2437329 50.1615207,11.8363767 50.1615207,12.4724178 L50.1615207,22.5984452 L47.4831797,22.5984452 L47.4831797,5.99243836 L49.9882488,5.99243836 L49.9882488,7.83388356 C50.5891705,7.15128082 51.3324885,6.61175342 52.2115207,6.2155274 C53.0910138,5.81613699 54.0891705,5.61632877 55.2025346,5.61632877 Z" id="Shape" fill-rule="nonzero"></path>
                    <path d="M71.7836406,8.34673973 L66.5018433,8.34673973 L66.5018433,17.4172192 C66.5018433,18.0299795 66.5900922,18.5394452 66.7631336,18.9490068 C66.9361751,19.3585685 67.1806452,19.6815616 67.4928571,19.9213767 C67.8050691,20.1611918 68.1751152,20.3309384 68.602765,20.4342329 C69.033871,20.534137 69.5124424,20.5874795 70.0453917,20.5874795 C70.3949309,20.5874795 70.7481567,20.5707534 71.1078341,20.534137 C71.4642857,20.500911 71.8647465,20.4509589 72.3059908,20.3808904 L72.3059908,22.5986712 C71.8647465,22.711911 71.4235023,22.8018699 70.9854839,22.8717123 C70.5442396,22.9383904 70.0587558,22.9750068 69.5258065,22.9750068 C67.8557604,22.9750068 66.487788,22.5487192 65.4218894,21.6963699 C64.3559908,20.8440205 63.8230415,19.4720342 63.8230415,17.5874178 L63.8230415,8.34673973 L63.8230415,5.99243836 L63.8230415,1.45719863 L66.5013825,1.45719863 L66.5013825,5.99243836 L71.7831797,5.99243836 L71.7831797,8.34673973 L71.7836406,8.34673973 Z" id="Shape" fill-rule="nonzero"></path>
                    <path d="M81.3458525,5.61632877 C82.4117512,5.61632877 83.4131336,5.79941096 84.3534562,6.16241096 C85.2903226,6.52880137 86.1082949,7.03826712 86.8009217,7.69736301 C87.4967742,8.35668493 88.043318,9.14574658 88.4370968,10.0681644 C88.8308756,10.9871918 89.0276498,12.0061233 89.0276498,13.1184041 C89.0276498,13.5745274 89.0039171,13.9775342 88.9564516,14.330363 C88.912212,14.6834178 88.8647465,14.9397329 88.8172811,15.0961438 L75.4700461,15.0961438 C75.5617512,15.9385479 75.7790323,16.6943836 76.114977,17.3638767 C76.4509217,18.0365342 76.8889401,18.6092877 77.4354839,19.0853014 C77.9785714,19.5647055 78.6099078,19.9277055 79.3294931,20.1774658 C80.0456221,20.427226 80.8230415,20.5538014 81.6580645,20.5538014 C82.7476959,20.5538014 83.7082949,20.3474384 84.543318,19.9378767 C85.378341,19.5283151 86.1421659,18.9856233 86.8380184,18.3030205 L88.3995392,20.0743973 C87.5679724,20.9601986 86.5767281,21.6660822 85.4292627,22.1888836 C84.2817972,22.7116849 83.0124424,22.9747808 81.6239631,22.9747808 C80.3476959,22.9747808 79.1663594,22.7516918 78.0767281,22.3089041 C76.9870968,21.8661164 76.0435484,21.2533562 75.2458525,20.4674589 C74.4447005,19.6815616 73.8202765,18.7693151 73.3686636,17.7237123 C72.9172811,16.6781096 72.6898618,15.5393836 72.6898618,14.313863 C72.6898618,13.1084589 72.9105991,11.9762877 73.3518433,10.9207397 C73.7896313,9.86180137 74.4041475,8.94277397 75.1917051,8.15687671 C75.9792627,7.37436986 76.8956221,6.75505479 77.937788,6.29893151 C78.9797235,5.8459726 80.1170507,5.61632877 81.3458525,5.61632877 Z M81.274424,8.00385616 C80.5582949,8.00385616 79.8792627,8.1204863 79.2412442,8.34673973 C78.6029954,8.57321918 78.0361751,8.89621233 77.5373272,9.31910959 C77.0417051,9.73861644 76.6241935,10.2449178 76.2882488,10.8341712 C75.9523041,11.4268151 75.7145161,12.0728014 75.5753456,12.778911 L86.2815668,12.778911 C86.2815668,12.0063493 86.1423963,11.3237466 85.8640553,10.7311027 C85.5857143,10.1416233 85.2225806,9.64232877 84.7677419,9.23276712 C84.3163594,8.82320548 83.7900922,8.51693836 83.1859447,8.31034932 C82.5847926,8.10692466 81.9465438,8.00385616 81.274424,8.00385616 Z" id="Shape" fill-rule="nonzero"></path>
                    <path d="M98.9225806,5.85591781 C99.2009217,5.85591781 99.4317972,5.86925342 99.6184332,5.88914384 C99.8050691,5.91242466 99.978341,5.9490411 100.141244,5.99243836 L100.141244,8.30989726 L99.1670507,8.30989726 C98.4711982,8.30989726 97.8057604,8.41974658 97.1677419,8.63628082 C96.5294931,8.85281507 95.9626728,9.1624726 95.4638249,9.57203425 C94.964977,9.98159589 94.5677419,10.4876712 94.2656682,11.0904863 C93.9635945,11.6930753 93.8142857,12.3924041 93.8142857,13.1882466 L93.8142857,22.5984452 L91.1359447,22.5984452 L91.1359447,5.99243836 L93.6410138,5.99243836 L93.6410138,8.37996575 C94.2656682,7.56084247 95.0428571,6.93474658 95.9695853,6.50529452 C96.8960829,6.07245205 97.8804147,5.85591781 98.9225806,5.85591781 Z" id="Shape" fill-rule="nonzero"></path>
                </g>
                <path d="M9.6121008,1.24176062 L0.805034562,1.24176062 L0.805034562,9.88113066 L9.6121008,1.24176062 Z M-0.460794931,11.3800274 L-0.460794931,0.62089726 C-0.460794931,0.278003897 -0.177429347,3.39041096e-05 0.172119816,3.39041096e-05 L11.1400922,3.39041096e-05 C11.703959,3.39041096e-05 11.9863445,0.668791852 11.5876305,1.05991395 L0.619658125,11.8190441 C0.220944074,12.2101662 -0.460794931,11.9331576 -0.460794931,11.3800274 Z" id="Shape" fill-rule="nonzero"></path>
                <path d="M1.70011118,10.759164 L10.5071774,10.759164 L10.5071774,2.119794 L1.70011118,10.759164 Z M11.7730069,0.62089726 L11.7730069,11.3800274 C11.7730069,11.7229208 11.4896413,12.0008908 11.1400922,12.0008908 L0.172119816,12.0008908 C-0.391747002,12.0008908 -0.674132544,11.3321328 -0.275418494,10.9410107 L10.6925539,0.181880571 C11.0912679,-0.209241527 11.7730069,0.0677670847 11.7730069,0.62089726 Z" id="Shape" fill-rule="nonzero"></path>
                <path d="M20.5802809,1.24176062 L11.7730069,1.24176062 L11.7730069,9.88115293 L20.5802809,1.24176062 Z M10.5071774,11.3800274 L10.5071774,0.62089726 C10.5071774,0.278003897 10.790543,3.39041096e-05 11.1400922,3.39041096e-05 L22.1082949,3.39041096e-05 C22.672165,3.39041096e-05 22.954549,0.668798348 22.5558285,1.05991856 L11.5876258,11.8190487 C11.1889098,12.2101645 10.5071774,11.9331544 10.5071774,11.3800274 Z" id="Shape" fill-rule="nonzero"></path>
                <path d="M12.6681062,10.759164 L21.4753802,10.759164 L21.4753802,2.11977173 L12.6681062,10.759164 Z M22.7412097,0.62089726 L22.7412097,11.3800274 C22.7412097,11.7229208 22.4578441,12.0008908 22.1082949,12.0008908 L11.1400922,12.0008908 C10.5762221,12.0008908 10.2938381,11.3321263 10.6925586,10.9410061 L21.6607613,0.18187596 C22.0594773,-0.209239807 22.7412097,0.0677702291 22.7412097,0.62089726 Z" id="Shape" fill-rule="nonzero"></path>
                <path d="M0.805034562,20.6404646 L9.6121235,12.0008908 L0.805034562,12.0008908 L0.805034562,20.6404646 Z M-0.460794931,22.1393836 L-0.460794931,11.3800274 C-0.460794931,11.037134 -0.177429347,10.759164 0.172119816,10.759164 L11.1400922,10.759164 C11.7039558,10.759164 11.9863428,11.4279155 11.5876352,11.8190395 L0.619662826,22.5783956 C0.220950697,22.9695241 -0.460794931,22.6925169 -0.460794931,22.1393836 Z" id="Shape" fill-rule="nonzero"></path>
                <path d="M1.70008848,21.5185202 L10.5071774,21.5185202 L10.5071774,12.8789464 L1.70008848,21.5185202 Z M11.7730069,11.3800274 L11.7730069,22.1393836 C11.7730069,22.4822769 11.4896413,22.7602469 11.1400922,22.7602469 L0.172119816,22.7602469 C-0.391743797,22.7602469 -0.67413079,22.0914955 -0.275423194,21.7003715 L10.6925492,10.9410153 C11.0912613,10.5498869 11.7730069,10.8268941 11.7730069,11.3800274 Z" id="Shape" fill-rule="nonzero"></path>
                <path d="M11.7730069,20.6404868 L20.5803036,12.0008908 L11.7730069,12.0008908 L11.7730069,20.6404868 Z M10.5071774,22.1393836 L10.5071774,11.3800274 C10.5071774,11.037134 10.790543,10.759164 11.1400922,10.759164 L22.1082949,10.759164 C22.6721617,10.759164 22.9545473,11.427922 22.5558332,11.8190441 L11.5876305,22.5784003 C11.1889164,22.9695223 10.5071774,22.6925137 10.5071774,22.1393836 Z" id="Shape" fill-rule="nonzero"></path>
                <path d="M9.6121008,22.7602469 L0.805034562,22.7602469 L0.805034562,31.399617 L9.6121008,22.7602469 Z M-0.460794931,32.8985137 L-0.460794931,22.1393836 C-0.460794931,21.7964902 -0.177429347,21.5185202 0.172119816,21.5185202 L11.1400922,21.5185202 C11.703959,21.5185202 11.9863445,22.1872782 11.5876305,22.5784003 L0.619658125,33.3375304 C0.220944074,33.7286525 -0.460794931,33.4516439 -0.460794931,32.8985137 Z" id="Shape" fill-rule="nonzero"></path>
                <path d="M144.043318,5.64390411 C145.29424,5.64390411 146.382719,5.88258904 147.309677,6.35973288 C148.235945,6.83687671 149.035023,7.47336986 149.707143,8.26853425 L148.073963,9.90452055 C147.541014,9.33673973 146.915438,8.88784932 146.197465,8.55807534 C145.479263,8.22897945 144.726267,8.06375342 143.93894,8.06375342 C143.12765,8.06375342 142.45023,8.24005479 141.906221,8.59197945 C141.361751,8.94458219 141.089862,9.46105479 141.089862,10.1427534 C141.089862,10.7109863 141.309677,11.1598767 141.75,11.4891986 C142.189631,11.8187466 142.884562,12.176774 143.834793,12.5628288 L145.398387,13.2103973 C146.927189,13.8466644 148.061982,14.528589 148.803456,15.2554932 C149.54447,15.9830753 149.915207,16.937363 149.915207,18.1185822 C149.915207,18.9365753 149.752995,19.6472055 149.428802,20.2491164 C149.104147,20.8512534 148.664516,21.3566507 148.108525,21.7657603 C147.552765,22.1748699 146.915207,22.481589 146.197465,22.6861438 C145.479263,22.8904726 144.738249,22.992637 143.973733,22.992637 C142.467742,22.992637 141.159217,22.6743904 140.047465,22.0383493 C138.935714,21.4023082 138.032258,20.6405959 137.337097,19.7545685 L139.074424,18.0161918 C139.746083,18.743774 140.464286,19.3513356 141.228802,19.8397808 C141.993318,20.3286781 142.896544,20.5725616 143.939171,20.5725616 C144.819124,20.5725616 145.57765,20.3680068 146.214977,19.9588973 C146.852074,19.5497877 147.170507,18.9704795 147.170507,18.2207466 C147.170507,17.5166712 146.886636,16.9823425 146.319355,16.6186644 C145.751382,16.2554384 145.050922,15.9028356 144.217051,15.5619863 L142.549309,14.8802877 C141.923963,14.6074726 141.350691,14.3294589 140.829263,14.0451164 C140.308065,13.761226 139.861982,13.4375548 139.491475,13.0736507 C139.120737,12.7104247 138.836866,12.3013151 138.640323,11.8465479 C138.443318,11.3922329 138.345161,10.8698836 138.345161,10.2785959 C138.345161,9.52886301 138.495392,8.86411644 138.796774,8.28458219 C139.097696,7.70527397 139.509217,7.22270548 140.030415,6.8359726 C140.551613,6.44991781 141.159447,6.15427397 141.854608,5.94971918 C142.549309,5.74629452 143.279032,5.64390411 144.043318,5.64390411 Z" id="Shape" fill-rule="nonzero"></path>
            </g>
        </g>
    </g>
</svg>