
<svg width="356px" height="95px" viewBox="0 0 356 95" version="1.1" xmlns="http://www.w3.org/2000/svg" xmlns:xlink="http://www.w3.org/1999/xlink">
    <!-- Generator: Sketch 51.1 (57501) - http://www.bohemiancoding.com/sketch -->
    <desc>Created with Sketch.</desc>
    <defs></defs>
    <g id="Symbols" stroke="none" stroke-width="1" fill="none" fill-rule="evenodd">
        <g id="Branding/paynters-stacked-logo-STROKE-Copy-2" transform="translate(0.000000, -9.000000)" fill="#0E163C" fill-rule="nonzero">
            <g id="paynters-stacked" transform="translate(0.000000, 9.000000)">
                <g id="Group">
                    <g id="Shape">
                        <path d="M25.532,0.458 C29.121,0.458 32.345,0.963 35.214,1.995 C38.072,3.027 40.512,4.467 42.532,6.336 C44.541,8.217 46.1,10.43 47.206,12.998 C48.302,15.566 48.85,18.392 48.85,21.466 C48.85,24.55 48.302,27.398 47.206,29.998 C46.099,32.598 44.541,34.844 42.532,36.714 C40.512,38.584 38.072,40.045 35.214,41.109 C32.345,42.173 29.121,42.71 25.532,42.71 L8.586,42.71 L8.586,73.078 L0,73.078 L0,0.458 L25.532,0.458 Z M8.586,8.152 L8.586,35.006 L25.306,35.006 C30.152,35.006 33.795,33.759 36.256,31.266 C38.717,28.773 39.942,25.538 39.942,21.584 C39.942,17.694 38.717,14.481 36.256,11.956 C33.795,9.42 30.152,8.152 25.306,8.152 L8.586,8.152 Z"></path>
                        <path d="M72.502,18.274 C75.586,18.274 78.412,18.736 80.98,19.649 C83.548,20.573 85.762,21.949 87.632,23.775 C89.502,25.613 90.952,27.891 91.984,30.599 C93.005,33.318 93.521,36.477 93.521,40.066 L93.521,73.077 L85.483,73.077 L85.483,66.253 C83.581,68.821 81.099,70.799 78.058,72.195 C75.017,73.592 71.514,74.29 67.549,74.29 C64.841,74.29 62.327,73.935 60.016,73.237 C57.706,72.549 55.728,71.55 54.074,70.271 C52.419,68.992 51.14,67.413 50.227,65.543 C49.303,63.662 48.852,61.556 48.852,59.214 C48.852,54.668 50.593,51.036 54.074,48.318 C57.556,45.61 62.23,44.245 68.108,44.245 L85.054,44.245 L85.054,39.624 C85.054,35.079 83.872,31.683 81.529,29.448 C79.176,27.213 75.984,26.095 71.954,26.095 C68.655,26.095 65.775,26.847 63.314,28.341 C60.853,29.845 58.564,31.962 56.437,34.67 L50.72,30.049 C53.288,25.944 56.469,22.957 60.295,21.087 C64.099,19.22 68.171,18.274 72.502,18.274 Z M68.548,67.243 C70.74,67.243 72.846,66.878 74.867,66.147 C76.887,65.416 78.65,64.385 80.154,63.063 C81.658,61.741 82.851,60.183 83.732,58.389 C84.613,56.594 85.054,54.628 85.054,52.5 L85.054,51.178 L68.977,51.178 C61.347,51.178 57.543,53.714 57.543,58.775 C57.543,61.633 58.639,63.761 60.842,65.158 C63.046,66.544 65.603,67.243 68.548,67.243 Z"></path>
                        <path d="M119.777,80.557 C117.649,85.403 115.135,88.863 112.244,90.959 C109.343,93.054 105.807,94.097 101.627,94.097 C100.305,94.097 98.93,94 97.501,93.818 C96.072,93.636 94.729,93.367 93.482,92.991 L93.482,85.845 C94.729,85.985 95.878,86.114 96.942,86.232 C98.006,86.339 99.016,86.393 99.972,86.393 C102.54,86.393 104.829,85.823 106.849,84.684 C108.869,83.545 110.61,81.256 112.071,77.807 L114.94,71.317 L92.707,19.49 L101.841,19.49 L119.453,62.183 L137.162,19.49 L146.188,19.49 L119.777,80.557 Z"></path>
                        <path d="M174.14,18.274 C177.289,18.274 180.093,18.79 182.554,19.821 C185.015,20.853 187.099,22.293 188.83,24.162 C190.549,26.032 191.85,28.278 192.731,30.878 C193.612,33.478 194.053,36.326 194.053,39.41 L194.053,73.077 L185.585,73.077 L185.585,40.4 C185.585,36.145 184.403,32.695 182.06,30.052 C179.707,27.409 176.451,26.098 172.271,26.098 C170.208,26.098 168.327,26.442 166.597,27.14 C164.878,27.838 163.395,28.827 162.148,30.106 C160.891,31.395 159.924,32.911 159.225,34.673 C158.527,36.435 158.183,38.348 158.183,40.401 L158.183,73.079 L149.705,73.079 L149.705,19.49 L157.635,19.49 L157.635,25.432 C159.537,23.229 161.89,21.488 164.674,20.21 C167.456,18.919 170.615,18.274 174.14,18.274 Z"></path>
                        <path d="M226.63,27.086 L209.91,27.086 L209.91,56.358 C209.91,58.335 210.189,59.979 210.737,61.301 C211.285,62.623 212.059,63.665 213.047,64.439 C214.036,65.213 215.207,65.761 216.561,66.094 C217.926,66.416 219.441,66.588 221.128,66.588 C222.235,66.588 223.352,66.534 224.491,66.416 C225.619,66.309 226.887,66.147 228.284,65.922 L228.284,73.079 C226.887,73.444 225.49,73.734 224.104,73.96 C222.707,74.175 221.17,74.293 219.483,74.293 C214.196,74.293 209.865,72.918 206.491,70.167 C203.117,67.416 201.43,62.989 201.43,56.907 L201.43,27.087 L201.43,19.49 L201.43,4.854 L209.908,4.854 L209.908,19.49 L226.628,19.49 L226.628,27.086 L226.63,27.086 Z"></path>
                        <path d="M256.901,18.274 C260.275,18.274 263.445,18.865 266.422,20.036 C269.388,21.218 271.978,22.862 274.17,24.99 C276.373,27.118 278.103,29.664 279.349,32.641 C280.596,35.607 281.219,38.895 281.219,42.484 C281.219,43.956 281.144,45.256 280.993,46.395 C280.853,47.534 280.703,48.361 280.552,48.867 L238.3,48.867 C238.59,51.586 239.278,54.025 240.342,56.185 C241.406,58.356 242.792,60.204 244.522,61.741 C246.241,63.288 248.24,64.46 250.518,65.266 C252.785,66.072 255.246,66.48 257.89,66.48 C261.339,66.48 264.38,65.814 267.024,64.492 C269.668,63.17 272.085,61.419 274.288,59.216 L279.231,64.933 C276.598,67.791 273.46,70.07 269.828,71.757 C266.196,73.444 262.177,74.293 257.782,74.293 C253.742,74.293 250.002,73.573 246.553,72.144 C243.104,70.715 240.116,68.738 237.591,66.202 C235.055,63.666 233.078,60.722 231.649,57.347 C230.22,53.973 229.5,50.298 229.5,46.343 C229.5,42.453 230.198,38.799 231.595,35.393 C232.981,31.976 234.926,29.01 237.419,26.474 C239.912,23.949 242.813,21.95 246.112,20.478 C249.411,19.016 253.011,18.274 256.901,18.274 Z M256.675,25.979 C254.408,25.979 252.258,26.355 250.238,27.086 C248.218,27.817 246.423,28.859 244.844,30.224 C243.275,31.578 241.953,33.211 240.89,35.113 C239.826,37.026 239.074,39.11 238.633,41.389 L272.525,41.389 C272.525,38.896 272.084,36.693 271.203,34.78 C270.322,32.878 269.172,31.266 267.732,29.944 C266.303,28.622 264.637,27.634 262.724,26.967 C260.823,26.312 258.803,25.979 256.675,25.979 Z"></path>
                        <path d="M312.543,19.048 C313.424,19.048 314.155,19.091 314.746,19.155 C315.337,19.23 315.885,19.348 316.401,19.488 L316.401,26.967 L313.317,26.967 C311.114,26.967 309.008,27.322 306.988,28.02 C304.968,28.718 303.173,29.718 301.594,31.04 C300.014,32.362 298.757,33.995 297.801,35.94 C296.845,37.885 296.372,40.142 296.372,42.71 L296.372,73.078 L287.894,73.078 L287.894,19.489 L295.824,19.489 L295.824,27.194 C297.801,24.551 300.262,22.53 303.196,21.144 C306.128,19.746 309.245,19.048 312.543,19.048 Z"></path>
                    </g>
                    <path d="M337.216,18.364 C341.176,18.364 344.622,19.134 347.556,20.674 C350.488,22.214 353.018,24.268 355.146,26.834 L349.976,32.114 C348.288,30.282 346.308,28.833 344.036,27.769 C341.762,26.707 339.379,26.174 336.886,26.174 C334.318,26.174 332.173,26.743 330.451,27.879 C328.727,29.017 327.867,30.684 327.867,32.884 C327.867,34.718 328.563,36.167 329.957,37.229 C331.349,38.293 333.549,39.448 336.557,40.694 L341.507,42.784 C346.347,44.838 349.939,47.038 352.287,49.384 C354.633,51.732 355.807,54.812 355.807,58.624 C355.807,61.264 355.293,63.557 354.267,65.499 C353.239,67.442 351.847,69.073 350.087,70.393 C348.328,71.713 346.31,72.703 344.037,73.363 C341.763,74.023 339.418,74.352 336.997,74.352 C332.229,74.352 328.087,73.325 324.568,71.273 C321.048,69.221 318.188,66.763 315.988,63.903 L321.488,58.293 C323.614,60.641 325.888,62.602 328.308,64.178 C330.728,65.756 333.588,66.543 336.888,66.543 C339.674,66.543 342.075,65.883 344.092,64.563 C346.109,63.243 347.117,61.373 347.117,58.953 C347.117,56.681 346.218,54.957 344.422,53.783 C342.624,52.611 340.407,51.473 337.767,50.373 L332.487,48.173 C330.507,47.293 328.692,46.396 327.042,45.478 C325.392,44.562 323.98,43.517 322.807,42.343 C321.633,41.171 320.735,39.851 320.112,38.383 C319.488,36.917 319.177,35.231 319.177,33.323 C319.177,30.903 319.653,28.758 320.607,26.888 C321.559,25.018 322.862,23.461 324.512,22.213 C326.162,20.967 328.086,20.013 330.287,19.353 C332.486,18.694 334.796,18.364 337.216,18.364 Z" id="Shape"></path>
                </g>
            </g>
        </g>
    </g>
</svg>