<?xml version="1.0" encoding="UTF-8"?>
<svg width="36px" height="57px" viewBox="0 0 36 57" version="1.1" xmlns="http://www.w3.org/2000/svg" xmlns:xlink="http://www.w3.org/1999/xlink">
    <!-- Generator: Sketch 50.2 (55047) - http://www.bohemiancoding.com/sketch -->
    <title>Group 7</title>
    <desc>Created with Sketch.</desc>
    <defs></defs>
    <g id="Symbols" stroke="none" stroke-width="1" fill="none" fill-rule="evenodd">
        <g id="Card/Project-Copy" transform="translate(0.000000, -26.000000)">
            <g id="Group" transform="translate(0.000000, 26.000000)">
                <g id="Group-7">
                    <polygon id="Fill-328" fill="#1F1724" points="0 19 0 0 18 0"></polygon>
                    <polygon id="Fill-329" fill="#1F1724" points="18 0 18 19 0 19"></polygon>
                    <polygon id="Fill-330" fill="#D8E2E4" points="18 19 18 0 36 0"></polygon>
                    <polygon id="Fill-331" fill="#D8E2E4" points="36 0 36 19 18 19"></polygon>
                    <polygon id="Fill-332" fill="#054254" points="0 38 0 19 18 19"></polygon>
                    <polygon id="Fill-333" fill="#C60910" points="18 19 18 38 0 38"></polygon>
                    <polygon id="Fill-334" fill="#C60910" points="18 38 18 19 36 19"></polygon>
                    <polygon id="Fill-335" fill="#ADADAB" points="0 57 0 38 18 38"></polygon>
                    <polygon id="Fill-336" fill="#1F1724" points="0 19 0 0 18 0"></polygon>
                    <polygon id="Fill-337" fill="#1F1724" points="18 0 18 19 0 19"></polygon>
                    <polygon id="Fill-338" fill="#D8E2E4" points="18 19 18 0 36 0"></polygon>
                    <polygon id="Fill-339" fill="#D8E2E4" points="36 0 36 19 18 19"></polygon>
                    <polygon id="Fill-340" fill="#054254" points="0 38 0 19 18 19"></polygon>
                    <polygon id="Fill-341" fill="#C60910" points="18 19 18 38 0 38"></polygon>
                    <polygon id="Fill-342" fill="#C60910" points="18 38 18 19 36 19"></polygon>
                    <polygon id="Fill-343" fill="#ADADAB" points="0 57 0 38 18 38"></polygon>
                </g>
            </g>
        </g>
    </g>
</svg>