<svg xmlns="http://www.w3.org/2000/svg" viewBox="0 0 394.75 525.67"><defs><style>.a{fill:none;}.a,.b{stroke:#FCFCFC;stroke-linejoin:round;stroke-width:2px;}.b{fill:#FCFCFC;}</style></defs><title>Hero-top-left</title><polygon class="a" points="393.75 1 262.83 131.92 262.83 1 393.75 1"/><polygon class="a" points="262.83 1 131.92 131.92 131.92 1 262.83 1"/><polygon class="a" points="262.83 131.92 131.92 131.92 262.83 1 262.83 131.92"/><polygon class="a" points="262.83 131.92 131.92 262.83 131.92 131.92 262.83 131.92"/><polygon class="b" points="131.92 1 1 131.92 1 1 131.92 1"/><polygon class="a" points="131.92 131.92 1 131.92 131.92 1 131.92 131.92"/><polygon class="a" points="131.92 131.92 1 262.83 1 131.92 131.92 131.92"/><polygon class="a" points="131.92 262.83 1 262.83 131.92 131.92 131.92 262.83"/><polygon class="a" points="131.92 262.83 1 393.75 1 262.83 131.92 262.83"/><polygon class="a" points="131.92 393.75 1 393.75 131.92 262.83 131.92 393.75"/><polygon class="a" points="131.92 393.75 1 524.66 1 393.75 131.92 393.75"/></svg>